<svg width="100" height="47" viewBox="0 0 100 47" fill="none" xmlns="http://www.w3.org/2000/svg">
<g filter="url(#filter0_ddddd)">
<path d="M6.276 38.072C6.108 38.072 5.924 38.068 5.724 38.06C5.532 38.052 5.336 38.04 5.136 38.024C4.944 38.008 4.752 37.988 4.56 37.964C4.368 37.94 4.192 37.908 4.032 37.868V29.804C4.192 29.764 4.368 29.732 4.56 29.708C4.752 29.684 4.944 29.664 5.136 29.648C5.336 29.632 5.532 29.62 5.724 29.612C5.916 29.604 6.096 29.6 6.264 29.6C6.744 29.6 7.192 29.636 7.608 29.708C8.032 29.78 8.396 29.904 8.7 30.08C9.012 30.248 9.256 30.472 9.432 30.752C9.608 31.032 9.696 31.376 9.696 31.784C9.696 32.24 9.588 32.616 9.372 32.912C9.156 33.2 8.868 33.416 8.508 33.56C8.996 33.704 9.384 33.932 9.672 34.244C9.96 34.556 10.104 34.996 10.104 35.564C10.104 36.396 9.796 37.024 9.18 37.448C8.572 37.864 7.604 38.072 6.276 38.072ZM5.184 34.124V37.052C5.272 37.06 5.376 37.068 5.496 37.076C5.6 37.084 5.72 37.092 5.856 37.1C6 37.1 6.164 37.1 6.348 37.1C6.692 37.1 7.016 37.08 7.32 37.04C7.632 36.992 7.904 36.912 8.136 36.8C8.368 36.688 8.552 36.532 8.688 36.332C8.832 36.132 8.904 35.88 8.904 35.576C8.904 35.304 8.852 35.076 8.748 34.892C8.644 34.7 8.492 34.548 8.292 34.436C8.1 34.324 7.868 34.244 7.596 34.196C7.324 34.148 7.02 34.124 6.684 34.124H5.184ZM5.184 33.188H6.408C6.696 33.188 6.968 33.168 7.224 33.128C7.48 33.088 7.7 33.016 7.884 32.912C8.076 32.808 8.224 32.672 8.328 32.504C8.44 32.336 8.496 32.124 8.496 31.868C8.496 31.628 8.44 31.428 8.328 31.268C8.216 31.1 8.06 30.968 7.86 30.872C7.668 30.768 7.44 30.692 7.176 30.644C6.912 30.596 6.632 30.572 6.336 30.572C6.04 30.572 5.808 30.576 5.64 30.584C5.472 30.592 5.32 30.604 5.184 30.62V33.188ZM30.4869 36.992V38H25.4829V29.684H26.6469V36.992H30.4869ZM44.5705 33.836C44.5705 33.124 44.6745 32.496 44.8825 31.952C45.0985 31.408 45.3865 30.956 45.7465 30.596C46.1145 30.228 46.5385 29.952 47.0185 29.768C47.5065 29.584 48.0225 29.492 48.5665 29.492C49.1025 29.492 49.6065 29.584 50.0785 29.768C50.5585 29.952 50.9785 30.228 51.3385 30.596C51.6985 30.956 51.9825 31.408 52.1905 31.952C52.4065 32.496 52.5145 33.124 52.5145 33.836C52.5145 34.548 52.4065 35.176 52.1905 35.72C51.9825 36.264 51.6985 36.72 51.3385 37.088C50.9785 37.448 50.5585 37.72 50.0785 37.904C49.6065 38.088 49.1025 38.18 48.5665 38.18C48.0225 38.18 47.5065 38.088 47.0185 37.904C46.5385 37.72 46.1145 37.448 45.7465 37.088C45.3865 36.72 45.0985 36.264 44.8825 35.72C44.6745 35.176 44.5705 34.548 44.5705 33.836ZM45.7945 33.836C45.7945 34.34 45.8585 34.8 45.9865 35.216C46.1145 35.624 46.2945 35.972 46.5265 36.26C46.7665 36.548 47.0545 36.772 47.3905 36.932C47.7345 37.084 48.1185 37.16 48.5425 37.16C48.9665 37.16 49.3465 37.084 49.6825 36.932C50.0185 36.772 50.3025 36.548 50.5345 36.26C50.7745 35.972 50.9585 35.624 51.0865 35.216C51.2145 34.8 51.2785 34.34 51.2785 33.836C51.2785 33.332 51.2145 32.876 51.0865 32.468C50.9585 32.052 50.7745 31.7 50.5345 31.412C50.3025 31.124 50.0185 30.904 49.6825 30.752C49.3465 30.592 48.9665 30.512 48.5425 30.512C48.1185 30.512 47.7345 30.592 47.3905 30.752C47.0545 30.904 46.7665 31.124 46.5265 31.412C46.2945 31.7 46.1145 32.052 45.9865 32.468C45.8585 32.876 45.7945 33.332 45.7945 33.836ZM71.5624 38.18C70.9784 38.18 70.4464 38.084 69.9664 37.892C69.4864 37.7 69.0744 37.42 68.7304 37.052C68.3864 36.684 68.1184 36.232 67.9264 35.696C67.7424 35.152 67.6504 34.532 67.6504 33.836C67.6504 33.14 67.7544 32.524 67.9624 31.988C68.1784 31.444 68.4664 30.988 68.8264 30.62C69.1864 30.252 69.6064 29.972 70.0864 29.78C70.5664 29.588 71.0784 29.492 71.6224 29.492C71.9664 29.492 72.2744 29.516 72.5464 29.564C72.8264 29.612 73.0664 29.668 73.2664 29.732C73.4744 29.796 73.6424 29.86 73.7704 29.924C73.8984 29.988 73.9864 30.036 74.0344 30.068L73.6984 31.028C73.6264 30.98 73.5224 30.928 73.3864 30.872C73.2504 30.816 73.0944 30.76 72.9184 30.704C72.7504 30.648 72.5624 30.604 72.3544 30.572C72.1544 30.532 71.9504 30.512 71.7424 30.512C71.3024 30.512 70.9064 30.588 70.5544 30.74C70.2024 30.892 69.9024 31.112 69.6544 31.4C69.4064 31.688 69.2144 32.04 69.0784 32.456C68.9504 32.864 68.8864 33.324 68.8864 33.836C68.8864 34.332 68.9424 34.784 69.0544 35.192C69.1744 35.6 69.3504 35.952 69.5824 36.248C69.8144 36.536 70.1024 36.76 70.4464 36.92C70.7984 37.08 71.2064 37.16 71.6704 37.16C72.2064 37.16 72.6504 37.104 73.0024 36.992C73.3544 36.88 73.6184 36.78 73.7944 36.692L74.0944 37.652C74.0384 37.692 73.9384 37.744 73.7944 37.808C73.6504 37.864 73.4704 37.92 73.2544 37.976C73.0384 38.032 72.7864 38.08 72.4984 38.12C72.2104 38.16 71.8984 38.18 71.5624 38.18ZM95.3238 29.684C95.0758 29.956 94.7958 30.26 94.4838 30.596C94.1718 30.924 93.8438 31.264 93.4998 31.616C93.1638 31.96 92.8278 32.3 92.4918 32.636C92.1558 32.972 91.8398 33.284 91.5438 33.572C91.8878 33.812 92.2518 34.108 92.6358 34.46C93.0198 34.812 93.3958 35.188 93.7638 35.588C94.1318 35.988 94.4758 36.396 94.7958 36.812C95.1238 37.228 95.3958 37.624 95.6118 38H94.2438C94.0038 37.624 93.7278 37.248 93.4158 36.872C93.1038 36.488 92.7718 36.124 92.4198 35.78C92.0758 35.428 91.7238 35.104 91.3638 34.808C91.0118 34.512 90.6678 34.26 90.3318 34.052V38H89.1678V29.684H90.3318V33.356C90.6118 33.092 90.9198 32.796 91.2558 32.468C91.5918 32.132 91.9238 31.796 92.2518 31.46C92.5798 31.124 92.8878 30.804 93.1758 30.5C93.4718 30.188 93.7198 29.916 93.9198 29.684H95.3238Z" fill="white"/>
<path d="M14.8129 7.14H17.9329V21H14.8129V7.14ZM30.441 21C29.5477 19.4133 28.581 17.8467 27.541 16.3C26.501 14.7533 25.3943 13.2933 24.221 11.92V21H21.141V7.14H23.681C24.121 7.58 24.6077 8.12 25.141 8.76C25.6743 9.4 26.2143 10.0867 26.761 10.82C27.321 11.54 27.8743 12.2933 28.421 13.08C28.9677 13.8533 29.481 14.6 29.961 15.32V7.14H33.061V21H30.441ZM42.5782 21.28C40.3249 21.28 38.6049 20.6533 37.4182 19.4C36.2449 18.1467 35.6582 16.3667 35.6582 14.06C35.6582 12.9133 35.8382 11.8933 36.1982 11C36.5582 10.0933 37.0515 9.33333 37.6782 8.72C38.3049 8.09333 39.0515 7.62 39.9182 7.3C40.7849 6.98 41.7249 6.82 42.7382 6.82C43.3249 6.82 43.8582 6.86667 44.3382 6.96C44.8182 7.04 45.2382 7.14 45.5982 7.26C45.9582 7.36667 46.2582 7.48 46.4982 7.6C46.7382 7.72 46.9115 7.81333 47.0182 7.88L46.1182 10.4C45.6915 10.1733 45.1915 9.98 44.6182 9.82C44.0582 9.66 43.4182 9.58 42.6982 9.58C42.2182 9.58 41.7449 9.66 41.2782 9.82C40.8249 9.98 40.4182 10.24 40.0582 10.6C39.7115 10.9467 39.4315 11.4 39.2182 11.96C39.0049 12.52 38.8982 13.2 38.8982 14C38.8982 14.64 38.9649 15.24 39.0982 15.8C39.2449 16.3467 39.4715 16.82 39.7782 17.22C40.0982 17.62 40.5115 17.94 41.0182 18.18C41.5249 18.4067 42.1382 18.52 42.8582 18.52C43.3115 18.52 43.7182 18.4933 44.0782 18.44C44.4382 18.3867 44.7582 18.3267 45.0382 18.26C45.3182 18.18 45.5649 18.0933 45.7782 18C45.9915 17.9067 46.1849 17.82 46.3582 17.74L47.2182 20.24C46.7782 20.5067 46.1582 20.7467 45.3582 20.96C44.5582 21.1733 43.6315 21.28 42.5782 21.28ZM59.9366 7.14V9.8H55.7566V21H52.6366V9.8H48.4566V7.14H59.9366ZM69.5812 21C69.4345 20.52 69.2678 20.0267 69.0812 19.52C68.9078 19.0133 68.7345 18.5067 68.5612 18H63.1612C62.9878 18.5067 62.8078 19.0133 62.6212 19.52C62.4478 20.0267 62.2878 20.52 62.1412 21H58.9012C59.4212 19.5067 59.9145 18.1267 60.3812 16.86C60.8478 15.5933 61.3012 14.4 61.7412 13.28C62.1945 12.16 62.6345 11.1 63.0612 10.1C63.5012 9.08667 63.9545 8.1 64.4212 7.14H67.4012C67.8545 8.1 68.3012 9.08667 68.7412 10.1C69.1812 11.1 69.6212 12.16 70.0612 13.28C70.5145 14.4 70.9745 15.5933 71.4412 16.86C71.9078 18.1267 72.4012 19.5067 72.9212 21H69.5812ZM65.8412 10.28C65.7745 10.48 65.6745 10.7533 65.5412 11.1C65.4078 11.4467 65.2545 11.8467 65.0812 12.3C64.9078 12.7533 64.7145 13.2533 64.5012 13.8C64.3012 14.3467 64.0945 14.92 63.8812 15.52H67.8212C67.6078 14.92 67.4012 14.3467 67.2012 13.8C67.0012 13.2533 66.8078 12.7533 66.6212 12.3C66.4478 11.8467 66.2945 11.4467 66.1612 11.1C66.0278 10.7533 65.9212 10.48 65.8412 10.28Z" fill="white"/>
</g>
<defs>
<filter id="filter0_ddddd" x="0.03125" y="6.82031" width="99.5798" height="39.3599" filterUnits="userSpaceOnUse" color-interpolation-filters="sRGB">
<feFlood flood-opacity="0" result="BackgroundImageFix"/>
<feColorMatrix in="SourceAlpha" type="matrix" values="0 0 0 0 0 0 0 0 0 0 0 0 0 0 0 0 0 0 127 0"/>
<feOffset dy="4"/>
<feGaussianBlur stdDeviation="2"/>
<feColorMatrix type="matrix" values="0 0 0 0 0 0 0 0 0 0 0 0 0 0 0 0 0 0 0.25 0"/>
<feBlend mode="normal" in2="BackgroundImageFix" result="effect1_dropShadow"/>
<feColorMatrix in="SourceAlpha" type="matrix" values="0 0 0 0 0 0 0 0 0 0 0 0 0 0 0 0 0 0 127 0"/>
<feOffset dy="4"/>
<feGaussianBlur stdDeviation="2"/>
<feColorMatrix type="matrix" values="0 0 0 0 0 0 0 0 0 0 0 0 0 0 0 0 0 0 0.25 0"/>
<feBlend mode="normal" in2="effect1_dropShadow" result="effect2_dropShadow"/>
<feColorMatrix in="SourceAlpha" type="matrix" values="0 0 0 0 0 0 0 0 0 0 0 0 0 0 0 0 0 0 127 0"/>
<feOffset dy="4"/>
<feGaussianBlur stdDeviation="2"/>
<feColorMatrix type="matrix" values="0 0 0 0 0 0 0 0 0 0 0 0 0 0 0 0 0 0 0.25 0"/>
<feBlend mode="normal" in2="effect2_dropShadow" result="effect3_dropShadow"/>
<feColorMatrix in="SourceAlpha" type="matrix" values="0 0 0 0 0 0 0 0 0 0 0 0 0 0 0 0 0 0 127 0"/>
<feOffset dy="4"/>
<feGaussianBlur stdDeviation="2"/>
<feColorMatrix type="matrix" values="0 0 0 0 0 0 0 0 0 0 0 0 0 0 0 0 0 0 0.25 0"/>
<feBlend mode="normal" in2="effect3_dropShadow" result="effect4_dropShadow"/>
<feColorMatrix in="SourceAlpha" type="matrix" values="0 0 0 0 0 0 0 0 0 0 0 0 0 0 0 0 0 0 127 0"/>
<feOffset dy="4"/>
<feGaussianBlur stdDeviation="2"/>
<feColorMatrix type="matrix" values="0 0 0 0 0 0 0 0 0 0 0 0 0 0 0 0 0 0 0.25 0"/>
<feBlend mode="normal" in2="effect4_dropShadow" result="effect5_dropShadow"/>
<feBlend mode="normal" in="SourceGraphic" in2="effect5_dropShadow" result="shape"/>
</filter>
</defs>
</svg>
